# xmcd
#
# Track frame offsets:
#	150
#	12222
#	27664
#	37992
#	51714
#	65618
#	82125
#	93554
#	106217
#	117404
#	129523
#	144130
#	160501
#	166064
#	179474
#	191699
#	208293
#	220198
#	236436
#	250445
#
# Disc length: 3507 seconds
#
# Revision: 1
# Processed by: cddbd v1.5.2PL0 Copyright (c) Steve Scherf et al.
# Submitted via: audiograbber 1.83.01
#
DISCID=210db114
DTITLE=Various Artist - The Best Of County Party - CD 04
DYEAR=2014
DGENRE=Country
TTITLE0=Freddy Fender - Before The Next Teardrop Falls
TTITLE1=BJ Thomas - Another Somebody Done Somebody Wrong Song
TTITLE2=Duane Eddy - Rebel Rouser
TTITLE3=Red Foley and Ernest Tubb - Goodnight Irene
TTITLE4=Lacy J. Dalton - Tennessee Waltz
TTITLE5=Steve Dawson - Lonely One In This Town
TTITLE6=Carl Smith - Loose Talk
TTITLE7=Holly Dunn - You Really Had Me Going
TTITLE8=Johnny Tillotson - Raining In My Heart
TTITLE9=Marty Robbins - I'll Go Alone
TTITLE10=Porter Wagoner - Green Green Gras Of Home
TTITLE11=Janie Fricke - It Ain't Easy Bein' Easy
TTITLE12=Willie Nelson - The Ghost
TTITLE13=David Houston - Almost Persuaded
TTITLE14=Moe Bandy - Just Good Ol' Boys
TTITLE15=Tanya Tucker - Little Things
TTITLE16=Jim Reeves - Mexican Joe
TTITLE17=Exile - She's A Miracle
TTITLE18=Tommy Townsend - Thinkin' About The Country
TTITLE19=Peter, Paul and Mary - 500 Miles
EXTD=
EXTT0=
EXTT1=
EXTT2=
EXTT3=
EXTT4=
EXTT5=
EXTT6=
EXTT7=
EXTT8=
EXTT9=
EXTT10=
EXTT11=
EXTT12=
EXTT13=
EXTT14=
EXTT15=
EXTT16=
EXTT17=
EXTT18=
EXTT19=
PLAYORDER=
